{"title":"High.Road.2011.BDRip.XVID.AC3.HQ.Hive-CM8","uid":7057336,"size":1378140127,"categoryP":"video","categoryS":"movies","magnet":"?xt=urn:btih:c6c7abac6509b6984f7f11784ed6bf1860a8f970&amp;dn=High.Road.2011.BDRip.XVID.AC3.HQ.Hive-CM8&amp;tr=udp%3A%2F%2Ftracker.openbittorrent.com%3A80&amp;tr=udp%3A%2F%2Fopen.demonii.com%3A1337&amp;tr=udp%3A%2F%2Ftracker.coppersurfer.tk%3A6969&amp;tr=udp%3A%2F%2Fexodus.desync.com%3A6969","seeders":0,"leechers":1,"uploader":"crazy-torrent","files":3,"time":1330182020,"description":" &lt;a href=&quot;http://www.scenespeeds.com/&quot; rel=&quot;nofollow&quot; target=&quot;_NEW&quot;&gt;http://www.scenespeeds.com/&lt;/a&gt;\n\nDescription\nSource: Bluray \nVideo: 720x400 @bitrate 1700 2pass \nAudio: English TrueHD AC3 640 to AC3 5.1 @448 \nSample: yes included \nSubs: yes english in srt /subs \n &lt;a href=&quot;\nhttp://www.imdb.com/title/tt1692084/&quot; rel=&quot;nofollow&quot; target=&quot;_NEW&quot;&gt;\nhttp://www.imdb.com/title/tt1692084/&lt;/a&gt; \n\nGeneral \nComplete name: High.Road.2011.BDRip.XVID.AC3.HQ.Hive-CM8.avi \nFormat: AVI \nFormat/Info: Audio Video Interleave \nFile size: 1.28 GiB \nDuration: 1h 25mn \nOverall bit rate: 2 157 Kbps \nWriting application: Nandub v1.0rc2 \nWriting library: Nandub build 1853/release \n\nVideo \nID: 0 \nFormat: MPEG-4 Visual \nFormat profile: Advanced Simple@L5 \nFormat settings, BVOP: 1 \nFormat settings, QPel: Yes \nFormat settings, GMC: No warppoints \nFormat settings, Matrix: Default (H.263) \nMuxing mode: Packed bitstream \nCodec ID: XVID \nCodec ID/Hint: XviD \nDuration: 1h 25mn \nBit rate: 1 699 Kbps \nWidth: 720 pixels \nHeight: 400 pixels \nDisplay aspect ratio: 16:9 \nFrame rate: 23.976 fps \nColor space: YUV \nChroma subsampling: 4:2:0 \nBit depth: 8 bits \nScan type: Progressive \nCompression mode: Lossy \nBits/(Pixel*Frame): 0.246 \nStream size: 1.01 GiB (79%) \nWriting library: XviD 1.2.1 (UTC 2008-12-04) \n\nAudio \nID: 1 \nFormat: AC-3 \nFormat/Info: Audio Coding 3 \nMode extension: CM (complete main) \nCodec ID: 2000 \nDuration: 1h 25mn \nBit rate mode: Constant \nBit rate: 448 Kbps \nChannel(s): 6 channels \nChannel positions: Front: L C R, Side: L R, LFE \nSampling rate: 48.0 KHz \nBit depth: 16 bits \nCompression mode: Lossy \nStream size: 273 MiB (21%) \nAlignment: Split accross interleaves \nInterleave, duration: 42 ms (1.00 video frame) \nInterleave, preload duration: 500 ms \n\nHigh Road showcases a totally improvised script about Glenn &quot;Fitz&quot; Fitzgerald (James Pumphery) \na young man whose loyalties are split among his band, his girlfriend Monica (Abby Elliott) and selling weed \n\nKathryn Burns ... Orchid \nLizzy Caplan ... Sheila \nMichael Coleman ... Bakersfield Bouncer \nAndrew Daly ... Mr. Doobin (as Andy Daly) \nAbby Elliott ... Monica\n     &lt;a href=&quot;\nhttp://www.scenespeeds.com/&quot; rel=&quot;nofollow&quot; target=&quot;_NEW&quot;&gt;\nhttp://www.scenespeeds.com/&lt;/a&gt;","torrent":{"xt":"urn:btih:c6c7abac6509b6984f7f11784ed6bf1860a8f970","amp;dn":"High.Road.2011.BDRip.XVID.AC3.HQ.Hive-CM8","amp;tr":["udp%3A%2F%2Ftracker.openbittorrent.com%3A80","udp%3A%2F%2Fopen.demonii.com%3A1337","udp%3A%2F%2Ftracker.coppersurfer.tk%3A6969","udp%3A%2F%2Fexodus.desync.com%3A6969"],"infoHash":"c6c7abac6509b6984f7f11784ed6bf1860a8f970","infoHashBuffer":{"type":"Buffer","data":[198,199,171,172,101,9,182,152,79,127,17,120,78,214,191,24,96,168,249,112]},"announce":[],"urlList":[]}}